<?xml version="1.0" encoding="utf-8"?>
<!-- Generator: Adobe Illustrator 26.2.1, SVG Export Plug-In . SVG Version: 6.00 Build 0)  -->
<svg version="1.1" id="Calque_1" xmlns="http://www.w3.org/2000/svg" xmlns:xlink="http://www.w3.org/1999/xlink" x="0px" y="0px"
	 viewBox="0 0 1200 1200" style="enable-background:new 0 0 1200 1200;" xml:space="preserve">
<style type="text/css">
	.st0{fill:#545C68;}
	.st1{fill:#6AB14C;}
	.st2{fill:#B9D15C;}
	.st3{fill:#6B7586;}
</style>
<text transform="matrix(1 0 0 1 751.9124 -5808.4214)" style="font-family:'Nexa-Heavy'; font-size:145.8777px;">psytché</text>
<path d="M1339.61-5978.07c0,0-7.77-135.92-66.02-176.97c0,0-25.52-6.1-22.19,33.84c0,0-4.99,34.95-11.1,47.71
	c0,0-11.1,29.96,3.33,37.17c0,0-49.93,4.99-22.75,82.11c0,0,12.76,34.95,47.16,27.74c0,0,31.07-7.21,34.95-7.77L1339.61-5978.07z"/>
<path d="M1502.72-6058.51c0,0,17.2-0.46,0,18.08c0,0-25.52,26.11-34.95,30.92c0,0-15.53,14.24-21.08,22.01
	c0,0-18.31,22.75-33.29,22.75c0,0,11.65,11.65-38.28,51.59c0,0-41.05,31.62-53.26,16.64c0,0-8.32-19.97,7.77-52.15
	c0,0,23.86-34.95,99.3-77.11C1428.93-6025.78,1483.97-6057.4,1502.72-6058.51z"/>
<g>
	<g>
		<path class="st0" d="M255.73,592.6v17.67h-52.93v35.35h44.68v17.76h-44.68v48.64h-22.38V592.6H255.73z"/>
		<path class="st0" d="M297.6,625.97c5.34,0,10.25,0.85,14.74,2.56c4.49,1.71,8.35,4.2,11.6,7.47c3.25,3.28,5.78,7.29,7.6,12.06
			c1.82,4.76,2.73,10.2,2.73,16.31c0,1.54-0.07,2.82-0.21,3.84c-0.14,1.02-0.39,1.82-0.74,2.39c-0.36,0.58-0.84,0.99-1.45,1.24
			c-0.61,0.25-1.38,0.37-2.31,0.37H277.2c0.61,8.7,2.94,15.09,7.02,19.16c4.07,4.07,9.47,6.11,16.19,6.11c3.3,0,6.15-0.38,8.55-1.16
			c2.39-0.77,4.49-1.62,6.28-2.56c1.79-0.94,3.36-1.79,4.71-2.56c1.35-0.77,2.65-1.16,3.92-1.16c0.83,0,1.54,0.17,2.15,0.5
			c0.61,0.33,1.13,0.8,1.57,1.4l5.95,7.43c-2.26,2.64-4.79,4.86-7.6,6.65c-2.81,1.79-5.74,3.22-8.79,4.29
			c-3.06,1.07-6.17,1.83-9.33,2.27c-3.17,0.44-6.23,0.66-9.21,0.66c-5.89,0-11.37-0.98-16.43-2.93c-5.07-1.95-9.47-4.84-13.21-8.67
			c-3.74-3.83-6.69-8.56-8.84-14.2c-2.15-5.64-3.22-12.18-3.22-19.61c0-5.78,0.94-11.22,2.81-16.31c1.87-5.09,4.56-9.52,8.05-13.3
			c3.5-3.77,7.76-6.76,12.8-8.96C285.58,627.07,291.26,625.97,297.6,625.97z M298.01,640.58c-5.95,0-10.6,1.68-13.96,5.04
			c-3.36,3.36-5.51,8.12-6.44,14.29h38.32c0-2.64-0.36-5.13-1.07-7.47c-0.72-2.34-1.82-4.39-3.3-6.15
			c-1.49-1.76-3.36-3.15-5.62-4.17C303.68,641.09,301.04,640.58,298.01,640.58z"/>
		<path class="st0" d="M381.74,625.97c5.34,0,10.25,0.85,14.74,2.56c4.49,1.71,8.35,4.2,11.6,7.47c3.25,3.28,5.78,7.29,7.6,12.06
			s2.73,10.2,2.73,16.31c0,1.54-0.07,2.82-0.21,3.84c-0.14,1.02-0.39,1.82-0.74,2.39c-0.36,0.58-0.84,0.99-1.45,1.24
			c-0.61,0.25-1.38,0.37-2.31,0.37h-52.36c0.61,8.7,2.94,15.09,7.02,19.16c4.07,4.07,9.47,6.11,16.19,6.11
			c3.3,0,6.15-0.38,8.55-1.16c2.39-0.77,4.49-1.62,6.28-2.56c1.79-0.94,3.36-1.79,4.71-2.56c1.35-0.77,2.65-1.16,3.92-1.16
			c0.83,0,1.54,0.17,2.15,0.5c0.61,0.33,1.13,0.8,1.57,1.4l5.95,7.43c-2.26,2.64-4.79,4.86-7.6,6.65c-2.81,1.79-5.74,3.22-8.79,4.29
			c-3.06,1.07-6.17,1.83-9.33,2.27c-3.17,0.44-6.23,0.66-9.21,0.66c-5.89,0-11.37-0.98-16.43-2.93c-5.07-1.95-9.47-4.84-13.21-8.67
			c-3.74-3.83-6.69-8.56-8.84-14.2c-2.15-5.64-3.22-12.18-3.22-19.61c0-5.78,0.94-11.22,2.81-16.31c1.87-5.09,4.56-9.52,8.05-13.3
			c3.5-3.77,7.76-6.76,12.8-8.96C369.73,627.07,375.41,625.97,381.74,625.97z M382.16,640.58c-5.95,0-10.6,1.68-13.96,5.04
			c-3.36,3.36-5.51,8.12-6.44,14.29h38.32c0-2.64-0.36-5.13-1.07-7.47c-0.72-2.34-1.82-4.39-3.3-6.15
			c-1.49-1.76-3.36-3.15-5.62-4.17C387.83,641.09,385.18,640.58,382.16,640.58z"/>
		<path class="st0" d="M452.6,589.3v122.72h-20.4V589.3H452.6z"/>
		<path class="st0" d="M557.97,592.6v8.18c0,2.53-0.72,4.85-2.15,6.94l-61.28,86.54h61.94v17.76h-90.76v-8.75
			c0-1.1,0.19-2.16,0.58-3.18c0.38-1.02,0.88-1.97,1.49-2.85l61.44-86.96h-59.62V592.6H557.97z"/>
		<path class="st0" d="M601.9,625.97c5.34,0,10.25,0.85,14.74,2.56c4.49,1.71,8.35,4.2,11.6,7.47c3.25,3.28,5.78,7.29,7.6,12.06
			c1.82,4.76,2.73,10.2,2.73,16.31c0,1.54-0.07,2.82-0.21,3.84c-0.14,1.02-0.39,1.82-0.74,2.39c-0.36,0.58-0.84,0.99-1.45,1.24
			c-0.61,0.25-1.38,0.37-2.31,0.37H581.5c0.61,8.7,2.94,15.09,7.02,19.16c4.07,4.07,9.47,6.11,16.19,6.11c3.3,0,6.15-0.38,8.55-1.16
			c2.39-0.77,4.49-1.62,6.28-2.56c1.79-0.94,3.36-1.79,4.71-2.56c1.35-0.77,2.65-1.16,3.92-1.16c0.83,0,1.54,0.17,2.15,0.5
			c0.61,0.33,1.13,0.8,1.57,1.4l5.95,7.43c-2.26,2.64-4.79,4.86-7.6,6.65c-2.81,1.79-5.74,3.22-8.79,4.29
			c-3.06,1.07-6.17,1.83-9.33,2.27c-3.17,0.44-6.23,0.66-9.21,0.66c-5.89,0-11.37-0.98-16.43-2.93c-5.07-1.95-9.47-4.84-13.21-8.67
			c-3.74-3.83-6.69-8.56-8.84-14.2c-2.15-5.64-3.22-12.18-3.22-19.61c0-5.78,0.94-11.22,2.81-16.31c1.87-5.09,4.56-9.52,8.05-13.3
			c3.5-3.77,7.76-6.76,12.8-8.96C589.89,627.07,595.57,625.97,601.9,625.97z M602.32,640.58c-5.95,0-10.6,1.68-13.96,5.04
			c-3.36,3.36-5.51,8.12-6.44,14.29h38.32c0-2.64-0.36-5.13-1.07-7.47c-0.72-2.34-1.82-4.39-3.3-6.15
			c-1.49-1.76-3.36-3.15-5.62-4.17C607.98,641.09,605.34,640.58,602.32,640.58z"/>
		<path class="st0" d="M651.04,712.02v-84.73h12.47c2.64,0,4.38,1.24,5.2,3.72l1.4,6.69c1.71-1.76,3.51-3.36,5.41-4.79
			c1.9-1.43,3.91-2.67,6.03-3.72c2.12-1.04,4.39-1.84,6.81-2.39c2.42-0.55,5.06-0.83,7.93-0.83c4.63,0,8.73,0.78,12.3,2.35
			c3.58,1.57,6.56,3.77,8.96,6.61c2.39,2.84,4.21,6.22,5.45,10.16c1.24,3.94,1.86,8.27,1.86,13.01v53.93h-20.4v-53.93
			c0-5.17-1.2-9.18-3.59-12.02c-2.39-2.84-5.99-4.25-10.78-4.25c-3.52,0-6.83,0.8-9.91,2.39c-3.08,1.6-6,3.77-8.75,6.52v61.28
			H651.04z"/>
	</g>
	<g>
		<g>
			<path class="st1" d="M894.1,581.21c4.05,59.66-57.09,112.4-57.09,112.4s-67.69-44-71.74-103.66s57.09-112.4,57.09-112.4
				S890.05,521.55,894.1,581.21z"/>
		</g>
		<g>
			<path class="st2" d="M915.92,721.86c-59.66,4.05-112.4-57.09-112.4-57.09s44-67.69,103.66-71.74
				c59.66-4.05,112.4,57.09,112.4,57.09S975.59,717.81,915.92,721.86z"/>
		</g>
		<g>
			<path class="st3" d="M729.44,585.43c18.31,28.5,38.8,55.4,62.48,79.56c21.06,21.5,44.12,39.33,69.09,56.66
				c0,0-0.36,0.81-0.36,0.81l-5.53-2.54c-3.74-1.62-8.58-4.23-12.26-6.08c-29.88-16.22-56.3-38.7-77.37-65.36
				c-15-19.14-28.05-40.01-36.87-62.75C728.61,585.73,729.44,585.43,729.44,585.43L729.44,585.43z"/>
		</g>
	</g>
</g>
</svg>
